<svg width="192" height="76" viewBox="0 0 192 76" fill="none" xmlns="http://www.w3.org/2000/svg">
<path d="M9.44824 36.1147L20.1149 25.448C20.3609 25.1933 20.6552 24.9902 20.9805 24.8504C21.3058 24.7106 21.6558 24.6371 22.0098 24.634C22.3639 24.6309 22.7151 24.6984 23.0428 24.8325C23.3705 24.9666 23.6683 25.1646 23.9186 25.415C24.169 25.6653 24.367 25.9631 24.5011 26.2908C24.6352 26.6185 24.7027 26.9697 24.6996 27.3237C24.6965 27.6778 24.6229 28.0277 24.4832 28.3531C24.3434 28.6784 24.1403 28.9727 23.8856 29.2187L15.1042 38L23.8856 46.7813C24.1403 47.0273 24.3434 47.3216 24.4832 47.6469C24.6229 47.9723 24.6965 48.3222 24.6996 48.6763C24.7027 49.0303 24.6352 49.3815 24.5011 49.7092C24.367 50.0369 24.169 50.3347 23.9186 50.5851C23.6683 50.8354 23.3705 51.0335 23.0428 51.1675C22.7151 51.3016 22.3639 51.3691 22.0098 51.366C21.6558 51.3629 21.3058 51.2894 20.9805 51.1496C20.6552 51.0099 20.3609 50.8067 20.1149 50.552L9.44824 39.8853C8.94832 39.3853 8.66748 38.7071 8.66748 38C8.66748 37.2929 8.94832 36.6147 9.44824 36.1147ZM55.8856 25.448C55.6396 25.1933 55.3453 24.9902 55.02 24.8504C54.6946 24.7106 54.3447 24.6371 53.9906 24.634C53.6366 24.6309 53.2854 24.6984 52.9577 24.8325C52.63 24.9666 52.3322 25.1646 52.0819 25.415C51.8315 25.6653 51.6335 25.9631 51.4994 26.2908C51.3653 26.6185 51.2978 26.9697 51.3009 27.3237C51.304 27.6778 51.3776 28.0277 51.5173 28.3531C51.6571 28.6784 51.8602 28.9727 52.1149 29.2187L60.8962 38L52.1149 46.7813C51.8602 47.0273 51.6571 47.3216 51.5173 47.6469C51.3776 47.9723 51.304 48.3222 51.3009 48.6763C51.2978 49.0303 51.3653 49.3815 51.4994 49.7092C51.6335 50.0369 51.8315 50.3347 52.0819 50.5851C52.3322 50.8354 52.63 51.0335 52.9577 51.1675C53.2854 51.3016 53.6366 51.3691 53.9906 51.366C54.3447 51.3629 54.6946 51.2894 55.02 51.1496C55.3453 51.0099 55.6396 50.8067 55.8856 50.552L66.5522 39.8853C67.0522 39.3853 67.333 38.7071 67.333 38C67.333 37.2929 67.0522 36.6147 66.5522 36.1147L55.8856 25.448ZM40.7709 18.6027L30.1042 55.936C29.9101 56.6157 29.9937 57.3446 30.3367 57.9626C30.6797 58.5807 31.2541 59.0373 31.9336 59.232C32.1725 59.298 32.4191 59.3321 32.6669 59.3333C33.2464 59.3329 33.81 59.1437 34.2724 58.7944C34.7348 58.4451 35.0708 57.9547 35.2296 57.3973L45.8962 20.064C46.0074 19.7231 46.0487 19.3632 46.0176 19.006C45.9865 18.6487 45.8836 18.3014 45.7152 17.9848C45.5468 17.6682 45.3162 17.3889 45.0374 17.1634C44.7585 16.938 44.437 16.7711 44.0921 16.6728C43.7473 16.5745 43.3861 16.5467 43.0303 16.5912C42.6745 16.6357 42.3313 16.7514 42.0212 16.9316C41.7112 17.1118 41.4406 17.3526 41.2258 17.6397C41.011 17.9269 40.8563 18.2544 40.7709 18.6027Z" fill="#1976D2"/>
<path d="M86.7812 19.7891V17H99.9219V19.7891H95.0234V33H91.6797V19.7891H86.7812ZM102.086 33V17H108.398C109.612 17 110.646 17.2318 111.5 17.6953C112.354 18.1536 113.005 18.7917 113.453 19.6094C113.906 20.4219 114.133 21.3594 114.133 22.4219C114.133 23.4844 113.904 24.4219 113.445 25.2344C112.987 26.0469 112.323 26.6797 111.453 27.1328C110.589 27.5859 109.542 27.8125 108.313 27.8125H104.289V25.1016H107.766C108.417 25.1016 108.953 24.9896 109.375 24.7656C109.802 24.5365 110.12 24.2214 110.328 23.8203C110.542 23.4141 110.648 22.9479 110.648 22.4219C110.648 21.8906 110.542 21.4271 110.328 21.0312C110.12 20.6302 109.802 20.3203 109.375 20.1016C108.948 19.8776 108.406 19.7656 107.75 19.7656H105.469V33H102.086ZM96.0703 48.6016C96.0078 47.9714 95.7396 47.4818 95.2656 47.1328C94.7917 46.7839 94.1484 46.6094 93.3359 46.6094C92.7839 46.6094 92.3177 46.6875 91.9375 46.8437C91.5573 46.9948 91.2656 47.2057 91.0625 47.4766C90.8646 47.7474 90.7656 48.0547 90.7656 48.3984C90.7552 48.6849 90.8151 48.9349 90.9453 49.1484C91.0807 49.362 91.2656 49.5469 91.5 49.7031C91.7344 49.8542 92.0052 49.987 92.3125 50.1016C92.6198 50.2109 92.9479 50.3047 93.2969 50.3828L94.7344 50.7266C95.4323 50.8828 96.0729 51.0911 96.6562 51.3516C97.2396 51.612 97.7448 51.9323 98.1719 52.3125C98.599 52.6927 98.9297 53.1406 99.1641 53.6562C99.4036 54.1719 99.526 54.763 99.5312 55.4297C99.526 56.4089 99.276 57.2578 98.7813 57.9766C98.2917 58.6901 97.5833 59.2448 96.6562 59.6406C95.7344 60.0312 94.6224 60.2266 93.3203 60.2266C92.0286 60.2266 90.9036 60.0286 89.9453 59.6328C88.9922 59.237 88.2474 58.651 87.7109 57.875C87.1797 57.0937 86.901 56.1276 86.875 54.9766H90.1484C90.1849 55.513 90.3385 55.9609 90.6094 56.3203C90.8854 56.6745 91.2526 56.9427 91.7109 57.125C92.1745 57.3021 92.6979 57.3906 93.2812 57.3906C93.8542 57.3906 94.3516 57.3073 94.7734 57.1406C95.2005 56.974 95.5313 56.7422 95.7656 56.4453C96 56.1484 96.1172 55.8073 96.1172 55.4219C96.1172 55.0625 96.0104 54.7604 95.7969 54.5156C95.5885 54.2708 95.2813 54.0625 94.875 53.8906C94.474 53.7187 93.9818 53.5625 93.3984 53.4219L91.6563 52.9844C90.3073 52.6562 89.2422 52.1432 88.4609 51.4453C87.6797 50.7474 87.2917 49.8073 87.2969 48.625C87.2917 47.6562 87.5495 46.8099 88.0703 46.0859C88.5964 45.362 89.3177 44.7969 90.2344 44.3906C91.151 43.9844 92.1927 43.7812 93.3594 43.7812C94.5469 43.7812 95.5833 43.9844 96.4688 44.3906C97.3594 44.7969 98.0521 45.362 98.5469 46.0859C99.0417 46.8099 99.2969 47.6484 99.3125 48.6016H96.0703ZM108.127 48V50.5H100.9V48H108.127ZM102.541 45.125H105.869V56.3125C105.869 56.6198 105.916 56.8594 106.01 57.0312C106.104 57.1979 106.234 57.3151 106.4 57.3828C106.572 57.4505 106.77 57.4844 106.994 57.4844C107.15 57.4844 107.307 57.4714 107.463 57.4453C107.619 57.4141 107.739 57.3906 107.822 57.375L108.346 59.8516C108.179 59.9036 107.945 59.9635 107.643 60.0313C107.34 60.1042 106.973 60.1484 106.541 60.1641C105.739 60.1953 105.036 60.0885 104.432 59.8437C103.833 59.599 103.367 59.2187 103.033 58.7031C102.7 58.1875 102.536 57.5365 102.541 56.75V45.125ZM113.717 60.2266C112.951 60.2266 112.269 60.0938 111.67 59.8281C111.071 59.5573 110.597 59.1589 110.248 58.6328C109.904 58.1016 109.732 57.4401 109.732 56.6484C109.732 55.9818 109.855 55.4219 110.1 54.9687C110.344 54.5156 110.678 54.151 111.1 53.875C111.521 53.599 112.001 53.3906 112.537 53.25C113.079 53.1094 113.646 53.0104 114.24 52.9531C114.938 52.8802 115.501 52.8125 115.928 52.75C116.355 52.6823 116.665 52.5833 116.857 52.4531C117.05 52.3229 117.146 52.1302 117.146 51.875V51.8281C117.146 51.3333 116.99 50.9505 116.678 50.6797C116.37 50.4089 115.933 50.2734 115.365 50.2734C114.766 50.2734 114.29 50.4062 113.936 50.6719C113.581 50.9323 113.347 51.2604 113.232 51.6562L110.154 51.4062C110.311 50.6771 110.618 50.0469 111.076 49.5156C111.535 48.9792 112.126 48.5677 112.85 48.2812C113.579 47.9896 114.423 47.8438 115.381 47.8438C116.048 47.8438 116.686 47.9219 117.295 48.0781C117.91 48.2344 118.454 48.4766 118.928 48.8047C119.407 49.1328 119.785 49.5547 120.061 50.0703C120.337 50.5807 120.475 51.1927 120.475 51.9062V60H117.318V58.3359H117.225C117.032 58.7109 116.774 59.0417 116.451 59.3281C116.128 59.6094 115.74 59.8307 115.287 59.9922C114.834 60.1484 114.311 60.2266 113.717 60.2266ZM114.67 57.9297C115.16 57.9297 115.592 57.8333 115.967 57.6406C116.342 57.4427 116.636 57.1771 116.85 56.8438C117.063 56.5104 117.17 56.1328 117.17 55.7109V54.4375C117.066 54.5052 116.923 54.5677 116.74 54.625C116.563 54.6771 116.363 54.7266 116.139 54.7734C115.915 54.8151 115.691 54.8542 115.467 54.8906C115.243 54.9219 115.04 54.9505 114.857 54.9766C114.467 55.0339 114.126 55.125 113.834 55.25C113.542 55.375 113.316 55.5443 113.154 55.7578C112.993 55.9661 112.912 56.2266 112.912 56.5391C112.912 56.9922 113.076 57.3385 113.404 57.5781C113.738 57.8125 114.16 57.9297 114.67 57.9297ZM126.385 53.0625V60H123.057V48H126.229V50.1172H126.369C126.635 49.4193 127.08 48.8672 127.705 48.4609C128.33 48.0495 129.088 47.8438 129.979 47.8438C130.812 47.8438 131.538 48.026 132.158 48.3906C132.778 48.7552 133.26 49.276 133.604 49.9531C133.947 50.625 134.119 51.4271 134.119 52.3594V60H130.791V52.9531C130.796 52.2187 130.609 51.6458 130.229 51.2344C129.848 50.8177 129.325 50.6094 128.658 50.6094C128.21 50.6094 127.814 50.7057 127.471 50.8984C127.132 51.0911 126.867 51.3724 126.674 51.7422C126.486 52.1068 126.39 52.5469 126.385 53.0625ZM141.164 60.1953C140.253 60.1953 139.427 59.9609 138.688 59.4922C137.953 59.0182 137.37 58.3229 136.938 57.4062C136.51 56.4844 136.297 55.3542 136.297 54.0156C136.297 52.6406 136.518 51.4974 136.961 50.5859C137.404 49.6693 137.992 48.9844 138.727 48.5313C139.466 48.0729 140.276 47.8438 141.156 47.8438C141.828 47.8438 142.388 47.9583 142.836 48.1875C143.289 48.4115 143.654 48.6927 143.93 49.0312C144.211 49.3646 144.424 49.6927 144.57 50.0156H144.672V44H147.992V60H144.711V58.0781H144.57C144.414 58.4115 144.193 58.7422 143.906 59.0703C143.625 59.3932 143.258 59.6615 142.805 59.875C142.357 60.0885 141.81 60.1953 141.164 60.1953ZM142.219 57.5469C142.755 57.5469 143.208 57.401 143.578 57.1094C143.953 56.8125 144.24 56.3984 144.438 55.8672C144.641 55.3359 144.742 54.7135 144.742 54C144.742 53.2865 144.643 52.6667 144.445 52.1406C144.247 51.6146 143.961 51.2083 143.586 50.9219C143.211 50.6354 142.755 50.4922 142.219 50.4922C141.672 50.4922 141.211 50.6406 140.836 50.9375C140.461 51.2344 140.177 51.6458 139.984 52.1719C139.792 52.6979 139.695 53.3073 139.695 54C139.695 54.6979 139.792 55.3151 139.984 55.8516C140.182 56.3828 140.466 56.7995 140.836 57.1016C141.211 57.3984 141.672 57.5469 142.219 57.5469ZM154.15 60.2266C153.385 60.2266 152.702 60.0938 152.104 59.8281C151.505 59.5573 151.031 59.1589 150.682 58.6328C150.338 58.1016 150.166 57.4401 150.166 56.6484C150.166 55.9818 150.288 55.4219 150.533 54.9687C150.778 54.5156 151.111 54.151 151.533 53.875C151.955 53.599 152.434 53.3906 152.971 53.25C153.512 53.1094 154.08 53.0104 154.674 52.9531C155.372 52.8802 155.934 52.8125 156.361 52.75C156.788 52.6823 157.098 52.5833 157.291 52.4531C157.484 52.3229 157.58 52.1302 157.58 51.875V51.8281C157.58 51.3333 157.424 50.9505 157.111 50.6797C156.804 50.4089 156.367 50.2734 155.799 50.2734C155.2 50.2734 154.723 50.4062 154.369 50.6719C154.015 50.9323 153.781 51.2604 153.666 51.6562L150.588 51.4062C150.744 50.6771 151.051 50.0469 151.51 49.5156C151.968 48.9792 152.559 48.5677 153.283 48.2812C154.012 47.9896 154.856 47.8438 155.814 47.8438C156.481 47.8438 157.119 47.9219 157.729 48.0781C158.343 48.2344 158.887 48.4766 159.361 48.8047C159.84 49.1328 160.218 49.5547 160.494 50.0703C160.77 50.5807 160.908 51.1927 160.908 51.9062V60H157.752V58.3359H157.658C157.465 58.7109 157.208 59.0417 156.885 59.3281C156.562 59.6094 156.174 59.8307 155.721 59.9922C155.268 60.1484 154.744 60.2266 154.15 60.2266ZM155.104 57.9297C155.593 57.9297 156.025 57.8333 156.4 57.6406C156.775 57.4427 157.07 57.1771 157.283 56.8438C157.497 56.5104 157.604 56.1328 157.604 55.7109V54.4375C157.499 54.5052 157.356 54.5677 157.174 54.625C156.997 54.6771 156.796 54.7266 156.572 54.7734C156.348 54.8151 156.124 54.8542 155.9 54.8906C155.676 54.9219 155.473 54.9505 155.291 54.9766C154.9 55.0339 154.559 55.125 154.268 55.25C153.976 55.375 153.749 55.5443 153.588 55.7578C153.426 55.9661 153.346 56.2266 153.346 56.5391C153.346 56.9922 153.51 57.3385 153.838 57.5781C154.171 57.8125 154.593 57.9297 155.104 57.9297ZM163.49 60V48H166.717V50.0937H166.842C167.061 49.349 167.428 48.7865 167.943 48.4063C168.459 48.0208 169.053 47.8281 169.725 47.8281C169.891 47.8281 170.071 47.8385 170.264 47.8594C170.456 47.8802 170.626 47.9089 170.771 47.9453V50.8984C170.615 50.8516 170.399 50.8099 170.123 50.7734C169.847 50.737 169.594 50.7188 169.365 50.7188C168.876 50.7188 168.438 50.8255 168.053 51.0391C167.673 51.2474 167.37 51.5391 167.146 51.9141C166.928 52.2891 166.818 52.7214 166.818 53.2109V60H163.49ZM176.355 60.1953C175.444 60.1953 174.618 59.9609 173.879 59.4922C173.145 59.0182 172.561 58.3229 172.129 57.4062C171.702 56.4844 171.488 55.3542 171.488 54.0156C171.488 52.6406 171.71 51.4974 172.152 50.5859C172.595 49.6693 173.184 48.9844 173.918 48.5313C174.658 48.0729 175.467 47.8438 176.348 47.8438C177.02 47.8438 177.579 47.9583 178.027 48.1875C178.48 48.4115 178.845 48.6927 179.121 49.0312C179.402 49.3646 179.616 49.6927 179.762 50.0156H179.863V44H183.184V60H179.902V58.0781H179.762C179.605 58.4115 179.384 58.7422 179.098 59.0703C178.816 59.3932 178.449 59.6615 177.996 59.875C177.548 60.0885 177.001 60.1953 176.355 60.1953ZM177.41 57.5469C177.947 57.5469 178.4 57.401 178.77 57.1094C179.145 56.8125 179.431 56.3984 179.629 55.8672C179.832 55.3359 179.934 54.7135 179.934 54C179.934 53.2865 179.835 52.6667 179.637 52.1406C179.439 51.6146 179.152 51.2083 178.777 50.9219C178.402 50.6354 177.947 50.4922 177.41 50.4922C176.863 50.4922 176.402 50.6406 176.027 50.9375C175.652 51.2344 175.368 51.6458 175.176 52.1719C174.983 52.6979 174.887 53.3073 174.887 54C174.887 54.6979 174.983 55.3151 175.176 55.8516C175.374 56.3828 175.658 56.7995 176.027 57.1016C176.402 57.3984 176.863 57.5469 177.41 57.5469Z" fill="#1976D2"/>
</svg>
